<svg width="28" height="28" viewBox="0 0 28 28" fill="none" xmlns="http://www.w3.org/2000/svg">
<path d="M20.497 10.5536C16.909 11.7453 11.0908 11.7453 7.50134 10.5536" stroke="white" stroke-width="2" stroke-linecap="round" stroke-linejoin="round"/>
<path d="M11.9777 16.7444H16.0221" stroke="white" stroke-width="2" stroke-linecap="round" stroke-linejoin="round"/>
<path d="M15.9254 11.3798V11.4476C15.9254 16.3357 15.9254 18.29 16.8888 21.2222" stroke="white" stroke-width="2" stroke-linecap="round" stroke-linejoin="round"/>
<path d="M12.0745 11.3798V11.4476C12.0745 16.3357 12.0745 18.29 11.111 21.2222" stroke="white" stroke-width="2" stroke-linecap="round" stroke-linejoin="round"/>
<path d="M23.1924 4.80762C28.2692 9.88444 28.2692 18.1156 23.1924 23.1924C18.1156 28.2692 9.88441 28.2692 4.80762 23.1924C-0.269206 18.1156 -0.269206 9.88441 4.80762 4.80762C9.88444 -0.269206 18.1156 -0.269206 23.1924 4.80762" stroke="white" stroke-width="2" stroke-linecap="round" stroke-linejoin="round"/>
<path d="M14.4851 6.65376C14.753 6.9217 14.753 7.35612 14.4851 7.62406C14.2171 7.89201 13.7827 7.89201 13.5148 7.62406C13.2468 7.35612 13.2468 6.9217 13.5148 6.65376C13.7827 6.38581 14.2171 6.38581 14.4851 6.65376" stroke="white" stroke-width="2" stroke-linecap="round" stroke-linejoin="round"/>
</svg>
