<svg width="34" height="34" viewBox="0 0 34 34" fill="none" xmlns="http://www.w3.org/2000/svg">
<path d="M17 29.7553C9.95482 29.7553 4.24469 24.0452 4.24469 17C4.24469 9.95482 9.95482 4.24469 17 4.24469C24.0452 4.24469 29.7553 9.95482 29.7553 17" stroke="white" stroke-width="2" stroke-linecap="round" stroke-linejoin="round"/>
<path d="M4.97174 12.7482H28.878" stroke="white" stroke-width="2" stroke-linecap="round" stroke-linejoin="round"/>
<path d="M4.97314 21.2518H17" stroke="white" stroke-width="2" stroke-linecap="round" stroke-linejoin="round"/>
<path d="M22.669 17C22.669 13.0827 21.6443 9.16542 19.5978 5.74699C18.3974 3.74441 15.6026 3.74441 14.4036 5.74699C10.3077 12.5853 10.3077 21.4162 14.4036 28.2545C15.0031 29.255 16.0022 29.7567 17.0014 29.7567" stroke="white" stroke-width="2" stroke-linecap="round" stroke-linejoin="round"/>
<path d="M32.5898 24.9721L30.9954 23.3777L29.401 24.9721" stroke="white" stroke-width="2" stroke-linecap="round" stroke-linejoin="round"/>
<path d="M20.8975 26.035L22.4919 27.6294L24.0863 26.035" stroke="white" stroke-width="2" stroke-linecap="round" stroke-linejoin="round"/>
<path d="M22.4919 27.6294V23.3777C22.4919 22.2027 23.4429 21.2518 24.6178 21.2518H27.8066" stroke="white" stroke-width="2" stroke-linecap="round" stroke-linejoin="round"/>
<path d="M30.9954 23.3777V27.6294C30.9954 28.7987 30.0387 29.7553 28.8695 29.7553H25.692" stroke="white" stroke-width="2" stroke-linecap="round" stroke-linejoin="round"/>
</svg>
