<svg width="128" height="87" viewBox="0 0 128 87" fill="none" xmlns="http://www.w3.org/2000/svg">
<path d="M95.3954 66.9663C95.6642 66.8764 95.7537 66.6517 95.7985 66.4719C96.2016 65.573 96.6943 64.764 97.1869 63.955C97.6796 63.1461 98.0826 62.3371 98.5753 61.573C99.5606 60 100.501 58.382 101.576 56.8989C102.651 55.3708 103.771 53.8876 104.935 52.4494C106.189 50.9213 107.488 49.4382 108.831 48.0449C109.727 47.1011 110.623 46.0674 111.563 45.1685C113.355 43.3708 115.281 41.6629 117.207 40.0449C118.774 38.6966 120.521 38.0225 122.581 38.2921C125.089 38.6067 127.149 40.4494 127.776 42.9213C128.403 45.4382 127.642 47.5505 125.671 49.2135C123.521 51.0562 121.372 52.9438 119.401 54.9663C116.221 58.2921 113.176 61.7977 110.668 65.6629C109.279 67.8202 107.98 70.0674 106.771 72.3146C105.338 74.9213 104.039 77.618 102.785 80.3146C102.382 81.2135 101.979 82.1573 101.576 83.0562C100.367 85.8427 97.9483 87.2359 94.9476 86.8764C94.1414 86.7865 93.4248 86.5618 92.7083 86.1123C90.6481 84.809 89.2597 82.9663 88.0505 80.8989C87.0651 79.191 86.259 77.3932 85.4976 75.5056C85.1393 75.5505 85.0498 75.8652 84.8706 76.0899C83.3479 78.0674 81.6908 79.9101 79.8097 81.5281C77.7495 83.3258 75.4654 84.764 72.8678 85.6629C66.9112 87.7303 60.3723 85.8876 56.3416 80.9888C55.7593 80.3146 55.2667 79.5955 54.774 78.7865C54.5053 79.0112 54.2366 79.2359 54.0127 79.4157C51.1911 81.9326 48.056 84.0449 44.4731 85.3483C41.3828 86.4719 38.203 86.8314 34.9336 86.2022C30.9924 85.4382 28.0812 83.191 25.6628 80.1348C24.9014 79.1461 24.2296 78.0674 23.6474 76.9887C23.1099 76.0449 22.7964 75.0562 22.3486 74.0674C21.8111 72.9438 21.4528 71.7753 21.0945 70.6067C21.005 70.3371 21.005 70.1123 20.9602 69.8427C20.8706 69.3034 20.781 69.2584 20.2884 69.3483C17.7803 69.9775 15.2275 70.382 12.6299 70.3371C10.6593 70.3371 8.68865 70.1123 6.76283 69.573C5.24009 69.1685 3.76213 68.5843 2.55289 67.5056C1.25408 66.3371 0.35835 64.8989 0.0896304 63.1011C-0.0895159 61.9326 -0.0447293 60.7191 0.134417 59.5955C0.313563 58.4719 0.940575 57.4831 1.70195 56.6292C2.77682 55.3258 4.20999 54.6966 5.73274 54.2022C6.04624 54.0674 6.13582 54.2472 6.27018 54.4719C6.80762 55.3258 7.43463 56 8.24079 56.5843C9.8531 57.7528 11.7341 58.0225 13.66 57.9326C15.4514 57.8427 17.1981 57.4382 18.9 56.8539C19.3926 56.6741 19.5718 56.4494 19.6166 55.9101C19.7061 51.5955 20.1988 47.3258 20.9154 43.0562C21.3185 40.6741 21.7663 38.3371 22.4381 36.0449C23.2891 32.9888 24.2744 29.9775 25.4388 27.0562C26.0658 25.5281 26.6481 24 27.2751 22.5168C28.126 20.6292 28.8874 18.7416 30.0071 16.9888C30.5445 16.1348 30.9028 15.2359 31.3954 14.382C32.0225 13.3483 32.6943 12.3146 33.366 11.3258C34.9336 8.89886 36.725 6.69662 38.83 4.67414C40.6663 2.92134 42.7264 1.39325 45.1897 0.674145C48.4591 -0.359563 51.6838 -0.179788 54.7292 1.70785C57.0581 3.14605 58.8048 5.07864 59.8797 7.55055C61.0441 10.1573 61.3577 12.8989 61.1337 15.7303C60.865 19.7303 59.611 23.4607 58.1778 27.1461C56.879 30.4719 55.2219 33.618 53.6096 36.764C51.6838 40.4494 49.5788 44.0449 47.2499 47.5056C45.6376 49.8876 43.8909 52.2247 42.0546 54.427C39.7705 57.2135 37.0833 59.5955 34.3066 61.9326C33.5004 62.6067 32.6495 63.2809 31.7985 63.9101C31.485 64.1348 31.3954 64.3595 31.5298 64.7191C32.5151 67.6404 33.7691 70.382 35.6502 72.809C36.9042 74.382 37.576 74.9213 40.1288 74.1573C42.2786 73.4831 44.07 72.2247 45.7719 70.7416C47.653 69.1236 49.1309 67.2359 50.6089 65.2584C51.4598 64.1348 51.7733 63.0112 51.9077 61.618C52.4003 55.3258 53.8783 49.3034 56.6551 43.5955C57.3269 42.2022 58.1778 40.8539 59.1183 39.5955C60.0588 38.3371 61.4024 37.573 62.9252 37.1236C65.478 36.4045 67.8517 36.6741 70.091 38.1573C72.4647 39.7303 73.6292 41.9775 73.8531 44.809C74.0323 47.0112 73.45 49.1236 72.7334 51.191C71.6586 54.2921 70.1806 57.1685 68.5683 60C67.1799 62.427 65.7467 64.809 64.1344 67.0562C64.0001 67.2359 63.9105 67.4607 63.9105 67.6854C64.0896 69.573 64.4031 71.4157 65.5228 72.9888C66.5529 74.4719 67.9861 74.8314 69.5536 74.0225C70.3598 73.618 71.0316 73.0786 71.7481 72.5393C73.6292 71.1461 74.928 69.2135 76.3164 67.3708C77.1673 66.2022 77.9287 64.9438 78.6453 63.6854C79.2723 62.5618 79.7649 61.3932 80.392 60.2696C81.0638 59.1011 81.2429 57.9326 81.0637 56.6292C80.7502 54.6067 80.8398 52.5843 81.0637 50.5168C81.2429 48.764 81.8699 47.2809 83.0344 45.9775C84.0645 44.809 85.408 44.1798 86.9308 43.8652C88.8566 43.5056 90.6033 43.8652 92.2156 44.9438C93.6488 45.9326 94.5893 47.2809 95.0372 48.9438C95.6642 51.191 95.3059 53.4382 94.8132 55.6854C94.5445 56.9438 94.1414 58.1573 93.7831 59.4157C93.7383 59.5955 93.6488 59.7753 93.6936 60C94.1414 62.2022 94.6789 64.4045 95.3059 66.5618C95.3059 66.6517 95.3954 66.7865 95.485 66.8764L95.3954 66.9663ZM32.6495 45.9775C32.963 45.9775 33.0525 45.7528 33.1869 45.618C34.5305 44.0899 35.8293 42.5618 36.949 40.8539C38.5165 38.4719 39.9945 36.0899 41.4724 33.6629C44.8314 28.1348 47.429 22.2921 48.9518 16C49.0861 15.3708 49.2653 14.7416 49.1757 14.0674C49.0861 13.1685 48.2352 12.764 47.4738 13.2135C47.2499 13.3483 47.0707 13.5281 46.8916 13.7079C45.1449 15.4157 43.7565 17.3932 42.5025 19.4607C38.4269 26.1573 35.6502 33.3932 33.6796 40.9888C33.2765 42.6517 32.8734 44.3146 32.6495 45.9775Z" fill="#FFCF55"/>
<path d="M80.2128 26.2472C80.2128 30.1573 77.0778 34.0224 72.5095 34.0674C68.0757 34.0674 64.6719 30.6966 64.6719 26.2921C64.6719 21.6629 68.1652 18.4719 72.5095 18.5168C76.8538 18.5168 80.2128 22.1573 80.2128 26.2921V26.2472Z" fill="#FFCF55"/>
</svg>
